<?xml version="1.0" encoding="UTF-8" standalone="no"?>
<svg
   width="24"
   height="24"
   viewBox="0 0 74 79"
   fill="black"
   version="1.1"
   id="svg52"
   sodipodi:docname="mastodon.svg"
   inkscape:version="1.2.2 (732a01da63, 2022-12-09)"
   xmlns:inkscape="http://www.inkscape.org/namespaces/inkscape"
   xmlns:sodipodi="http://sodipodi.sourceforge.net/DTD/sodipodi-0.dtd"
   xmlns="http://www.w3.org/2000/svg"
   xmlns:svg="http://www.w3.org/2000/svg">
  <defs
     id="defs56">
    <linearGradient
       id="linearGradient8364"
       inkscape:swatch="solid">
      <stop
         style="stop-color:#ff00ff;stop-opacity:1;"
         offset="0"
         id="stop8362" />
    </linearGradient>
  </defs>
  <sodipodi:namedview
     id="namedview54"
     pagecolor="#ffffff"
     bordercolor="#000000"
     borderopacity="0.25"
     inkscape:showpageshadow="2"
     inkscape:pageopacity="0.0"
     inkscape:pagecheckerboard="0"
     inkscape:deskcolor="#d1d1d1"
     showgrid="false"
     inkscape:zoom="16.898957"
     inkscape:cx="33.611542"
     inkscape:cy="37.724222"
     inkscape:window-width="3200"
     inkscape:window-height="1771"
     inkscape:window-x="2391"
     inkscape:window-y="-9"
     inkscape:window-maximized="1"
     inkscape:current-layer="svg52" />
  <path
     d="M 71.815716,19.626988 C 70.735248,11.682478 63.73544,5.4216671 55.437709,4.2084885 54.037784,4.0034891 48.733659,3.2574333 36.446694,3.2574333 h -0.09177 c -12.290282,0 -14.927084,0.7460558 -16.327008,0.9510552 C 11.961206,5.3880626 4.5945163,11.013723 2.8072022,19.05225 1.9475263,23.011054 1.8557819,27.400035 2.0154849,31.426048 c 0.2276611,5.773545 0.2718343,11.536951 0.8019115,17.286989 0.3664561,3.819458 1.0057305,7.608483 1.9130361,11.338643 1.698962,6.889278 8.5763795,12.622443 15.3144605,14.961494 7.214139,2.43925 14.972303,2.844117 22.405985,1.169479 0.817694,-0.188166 1.626482,-0.406668 2.426072,-0.655314 1.804316,-0.567912 3.921264,-1.20313 5.477504,-2.318859 0.02134,-0.01564 0.03887,-0.03584 0.05118,-0.05916 0.01231,-0.02323 0.01925,-0.049 0.0201,-0.07527 v -5.571826 c -3.8e-4,-0.02455 -0.0064,-0.04873 -0.01725,-0.07072 -0.01109,-0.02199 -0.02691,-0.04133 -0.04652,-0.05641 -0.01952,-0.01517 -0.0423,-0.02577 -0.06646,-0.03119 -0.02426,-0.0053 -0.04939,-0.0052 -0.07358,2.83e-4 -4.76266,1.12521 -9.64315,1.689236 -14.539753,1.680326 -8.426845,0 -10.693281,-3.955391 -11.342341,-5.60216 -0.521651,-1.423149 -0.852958,-2.907628 -0.985385,-4.415807 -0.0014,-0.0253 0.0034,-0.05063 0.01373,-0.07384 0.01033,-0.02314 0.02618,-0.04362 0.04598,-0.05961 0.0199,-0.01602 0.04333,-0.02719 0.06834,-0.0326 0.02505,-0.0055 0.051,-0.0049 0.07585,0.0015 4.683317,1.11753 9.484179,1.681557 14.301915,1.680325 1.158672,0 2.313931,0 3.472698,-0.03025 4.845415,-0.134418 9.952463,-0.379744 14.719768,-1.300576 0.118968,-0.02351 0.23784,-0.0437 0.339838,-0.07394 7.519565,-1.428268 14.675595,-5.911285 15.402763,-17.263482 0.02719,-0.446956 0.09518,-4.681327 0.09518,-5.145062 0.0034,-1.576147 0.513122,-11.180713 -0.07479,-17.081949 z M 60.242363,47.953544 H 52.335466 V 28.798061 c 0,-4.032742 -1.698999,-6.089402 -5.154729,-6.089402 -3.798885,0 -5.701693,2.433087 -5.701693,7.238689 V 40.432463 H 33.619641 V 29.947348 c 0,-4.805602 -1.90622,-7.238689 -5.705107,-7.238689 -3.43535,0 -5.151318,2.05666 -5.15473,6.089402 V 47.953544 H 14.859638 V 28.216687 c 0,-4.032742 1.040938,-7.236509 3.122718,-9.611393 2.147472,-2.369195 4.964384,-3.585693 8.460873,-3.585693 4.046869,0 7.105031,1.539081 9.143774,4.614119 l 1.967458,3.266519 1.970776,-3.266519 c 2.038743,-3.075038 5.096903,-4.614119 9.13704,-4.614119 3.49308,0 6.309895,1.216498 8.464191,3.585693 2.081879,2.372609 3.12272,5.576375 3.12272,9.611393 z"
     fill="inherit"
     id="path50"
     style="fill:none;fill-opacity:1;stroke:#000000;stroke-width:3.178;stroke-dasharray:none;stroke-opacity:1" />
</svg>
